# xmcd
#
# Track frame offsets:
# 182
# 10945
# 24612
# 38742
# 54952
# 68165
# 83170
# 98575
# 110257
# 126432
# 139402
# 153377
# 165600
# 178457
#
# Disc length: 2531 seconds
#
#
# Revision: 2
# Processed by: cddbd v1.4PL0 Copyright (c) Steve Scherf et al.
# Submitted via: FreeRIP 2.51 
#
DISCID=b709e10e
DTITLE=Delbert McClinton - Honky Tonk 'n Blues
DYEAR=1994
DGENRE=Blues
TTITLE0=Victim Of Life's Circumstances
TTITLE1=Two More Bottles Of Wine
TTITLE2=Before You Accuse Me
TTITLE3=Under Suspicion
TTITLE4=(When She Wants Good Lovin') My Baby Comes To Me
TTITLE5=Honky Tonkin'
TTITLE6=Lovey Dovey
TTITLE7=It's Love Baby (24 Hours A Day)
TTITLE8=Love Rustler
TTITLE9=Lesson In The Pain Of Love
TTITLE10=Solid Gold Plated Fool
TTITLE11=Please, Please, Please
TTITLE12=Pledging My Love
TTITLE13=Special Love Song
EXTD=
EXTT0=
EXTT1=
EXTT2=
EXTT3=
EXTT4=
EXTT5=
EXTT6=
EXTT7=
EXTT8=
EXTT9=
EXTT10=
EXTT11=
EXTT12=
EXTT13=
PLAYORDER=
